<?xml version="1.0" encoding="UTF-8" standalone="no"?>
<!-- Created with Inkscape (http://www.inkscape.org/) -->

<svg
   xmlns:dc="http://purl.org/dc/elements/1.1/"
   xmlns:cc="http://creativecommons.org/ns#"
   xmlns:rdf="http://www.w3.org/1999/02/22-rdf-syntax-ns#"
   xmlns:svg="http://www.w3.org/2000/svg"
   xmlns="http://www.w3.org/2000/svg"
   xmlns:sodipodi="http://sodipodi.sourceforge.net/DTD/sodipodi-0.dtd"
   xmlns:inkscape="http://www.inkscape.org/namespaces/inkscape"
   width="157.45801mm"
   height="218.37143mm"
   id="svg2"
   version="1.1"
   inkscape:version="0.91 r13725"
   sodipodi:docname="frog-split.svg"
   inkscape:export-filename="/home/luc/dev/skyluc/mesdonnees/projets/ingress/drapeau/frog-lignes.png"
   inkscape:export-xdpi="90"
   inkscape:export-ydpi="90">
  <defs
     id="defs4" />
  <sodipodi:namedview
     id="base"
     pagecolor="#ffffff"
     bordercolor="#666666"
     borderopacity="1.0"
     inkscape:pageopacity="0.0"
     inkscape:pageshadow="2"
     inkscape:zoom="2.8284271"
     inkscape:cx="241.79156"
     inkscape:cy="544.99668"
     inkscape:document-units="px"
     inkscape:current-layer="g4012"
     showgrid="false"
     inkscape:window-width="1855"
     inkscape:window-height="1056"
     inkscape:window-x="65"
     inkscape:window-y="24"
     inkscape:window-maximized="1"
     units="mm"
     fit-margin-top="0"
     fit-margin-left="0"
     fit-margin-right="0"
     fit-margin-bottom="0" />
  <metadata
     id="metadata7">
    <rdf:RDF>
      <cc:Work
         rdf:about="">
        <dc:format>image/svg+xml</dc:format>
        <dc:type
           rdf:resource="http://purl.org/dc/dcmitype/StillImage" />
        <dc:title></dc:title>
      </cc:Work>
    </rdf:RDF>
  </metadata>
  <g
     transform="translate(-78.489679,-150.38263)"
     style="display:none"
     inkscape:groupmode="layer"
     id="g4221"
     inkscape:label="dos ligne"
     sodipodi:insensitive="true">
    <path
       style="display:inline;fill:none;fill-opacity:1;stroke:#000000;stroke-width:0.2;stroke-miterlimit:4;stroke-dasharray:none;stroke-opacity:1"
       d="m 510.12109,778.70703 -4.28906,-1.78711 c 5.29101,30.28327 9.58526,60.81704 15.08203,91 1.86836,8.50777 4.57782,17.14602 8.43014,25.14729"
       id="path3324"
       transform="translate(-336.72742,-49.201375)"
       inkscape:connector-curvature="0"
       sodipodi:nodetypes="cccc" />
    <path
       style="display:inline;fill:none;fill-opacity:1;stroke:#000000;stroke-width:0.2;stroke-miterlimit:4;stroke-dasharray:none;stroke-opacity:1"
       d="m 574.31617,506.05924 c 4.85029,6.26751 10.21852,12.07537 16.34875,17.04838 0.21398,0.0939 0.42889,0.18304 0.6447,0.26763"
       id="path3389"
       inkscape:connector-curvature="0"
       transform="translate(-336.72742,-49.201375)" />
    <path
       style="display:inline;fill:none;fill-opacity:1;stroke:#000000;stroke-width:0.2;stroke-miterlimit:4;stroke-dasharray:none;stroke-opacity:1"
       d="m 529.65571,893.00367 c -2.8939,1.39439 -7.83885,2.96148 -14.53543,2.13132 -18.58104,-2.30345 -34.529,-36.41719 -45.71429,-58.92858 -10.99138,-22.12112 -15.68387,-47.34365 -17.67857,-71.96429 -4.15646,-51.30312 11.25826,-93.30916 26.60714,-136.60713 7.00869,-19.77095 17.28863,-44.65336 32.14286,-59.46429 13.96019,-13.91949 27.33888,-18.64912 41.60714,-31.25 8.14149,-7.19008 19.17946,-21.97905 22.37711,-30.9809"
       id="path3328"
       inkscape:connector-curvature="0"
       transform="translate(-336.72742,-49.201375)" />
    <path
       style="display:inline;fill:none;fill-opacity:1;stroke:#000000;stroke-width:0.2;stroke-miterlimit:4;stroke-dasharray:none;stroke-opacity:1"
       d="m 602.53639,586.72921 c 10.65569,36.03858 18.42809,73.23543 20.4652,110.83145"
       id="path3371"
       inkscape:connector-curvature="0"
       transform="translate(-336.72742,-49.201375)" />
    <path
       style="display:inline;fill:none;fill-opacity:1;stroke:#000000;stroke-width:0.2;stroke-miterlimit:4;stroke-dasharray:none;stroke-opacity:1"
       d="m 623.1029,697.57257 c -12.61927,-28.25727 -27.85401,-56.41438 -53.47009,-74.40262 -7.80578,-4.94436 -16.94692,-8.1386 -26.31054,-7.98242 l 0,-3e-5 c -0.62425,0.0104 -1.25108,0.0355 -1.87696,0.0762 -15.83255,1.38041 -30.07682,9.49461 -41.85742,19.88086 l 2.77818,2.71429"
       id="path3346"
       inkscape:connector-curvature="0"
       transform="translate(-336.72742,-49.201375)" />
  </g>
  <g
     inkscape:label="dos"
     id="g4012"
     inkscape:groupmode="layer"
     style="display:inline"
     transform="translate(-78.489679,-150.38263)">
    <path
       transform="translate(-336.72742,-49.201375)"
       inkscape:connector-curvature="0"
       id="path4020"
       d="m 602.53639,586.72921 c 10.65569,36.03858 18.38942,73.14152 20.47719,110.74349 -12.56862,-28.25131 -27.76469,-56.31451 -53.38077,-74.30275 -7.80578,-4.94436 -16.94692,-8.1386 -26.31054,-7.98242 l 0,-3e-5 c -0.62425,0.0104 -1.25108,0.0355 -1.87696,0.0762 -15.83255,1.38041 -30.07682,9.49461 -41.85742,19.88086 l 2.77818,2.71429 7.75502,140.84818 -4.28906,-1.78711 c 5.29101,30.28327 9.58526,60.81704 15.08203,91 1.86836,8.50777 4.57782,17.14602 8.47281,25.16919 -2.87927,1.38758 -7.74136,2.8548 -14.26659,2.04588 -18.58104,-2.30346 -34.529,-36.4172 -45.71429,-58.92858 -10.99138,-22.12112 -15.68387,-47.34365 -17.67857,-71.9643 -4.15646,-51.30312 11.25826,-93.30916 26.60714,-136.60712 7.00869,-19.77095 17.28863,-44.65336 32.14286,-59.46429 13.96019,-13.91949 27.33888,-18.64913 41.60714,-31.25 8.09241,-7.14674 19.04649,-21.80103 22.30099,-30.80595 4.81922,6.25342 10.17101,12.0376 16.27937,16.99287 0.21398,0.0939 0.42889,0.18304 0.6447,0.26763 l 29.36921,1.49472 6.28364,50.63632 z"
       style="display:inline;fill:#00ff00;fill-opacity:1;stroke:none;stroke-width:0.2;stroke-miterlimit:4;stroke-dasharray:none;stroke-opacity:1"
       sodipodi:nodetypes="ccccccccccccsssssscccccc" />
  </g>
  <g
     transform="translate(-78.489679,-150.38263)"
     inkscape:groupmode="layer"
     id="g4175"
     inkscape:label="genou gauche"
     style="display:inline"
     sodipodi:insensitive="true">
    <path
       style="display:inline;fill:#00ff00;fill-opacity:1;stroke:none;stroke-width:0.2;stroke-miterlimit:4;stroke-dasharray:none;stroke-opacity:1"
       d="m 871.47888,607.8485 c 3.03068,-0.60869 6.81866,-1.26358 9.17712,-1.28494 19.33562,-0.17516 28.6426,28.21586 31.42856,50 2.42062,18.9274 -3.20671,52.33589 -5.93921,66.7771"
       id="path4179"
       transform="translate(-336.72742,-49.201375)"
       inkscape:connector-curvature="0" />
    <path
       style="display:inline;fill:none;fill-opacity:1;stroke:#000000;stroke-width:0.2;stroke-miterlimit:4;stroke-dasharray:none;stroke-opacity:1"
       d="m 906.34177,722.8177 c -5.73393,-16.4821 -11.76794,-32.86192 -17.56447,-49.26196 -7.37888,-21.47867 -12.93749,-43.46609 -17.132,-65.73387"
       id="path4212"
       transform="translate(-336.72742,-49.201375)"
       inkscape:connector-curvature="0" />
  </g>
  <g
     transform="translate(-78.489679,-150.38263)"
     inkscape:groupmode="layer"
     id="g3476"
     inkscape:label="genou droit ligne"
     style="display:none"
     sodipodi:insensitive="true">
    <path
       style="fill:none;fill-opacity:1;stroke:#000000;stroke-width:0.2;stroke-miterlimit:4;stroke-dasharray:none;stroke-opacity:1"
       d="m 510.12109,778.70713 c 0,0 5.49021,33.23115 8.39258,49.82031 2.70027,15.43402 2.49189,25.16642 8.39258,46.25 4.12419,14.73601 10.76778,29.58727 23.75,39.28711 16.12901,12.051 35.25915,18.30117 51.78516,18.57032 19.97876,0.32538 37.51244,-3.23967 48.76631,-14.28234"
       id="path3948"
       transform="translate(-336.72742,-49.201375)"
       inkscape:connector-curvature="0" />
    <path
       style="fill:none;fill-opacity:1;stroke:#000000;stroke-width:0.2;stroke-miterlimit:4;stroke-dasharray:none;stroke-opacity:1"
       d="m 623.54399,708.24449 c -5.89141,-13.86758 -18.43712,-40.41985 -29.22758,-54.68394 -15.70202,-20.75674 -30.84083,-33.98332 -49.91211,-34.34961 -0.61521,-0.0118 -1.23389,-0.0112 -1.85742,0.004 -19.52687,0.47377 -40.30115,18.44027 -40.1543,18.68946"
       id="path3945"
       transform="translate(-336.72742,-49.201375)"
       inkscape:connector-curvature="0" />
    <path
       style="display:inline;fill:none;fill-opacity:1;stroke:#000000;stroke-width:0.2;stroke-miterlimit:4;stroke-dasharray:none;stroke-opacity:1"
       d="m 623.41226,707.80124 c 0.21867,8.46324 0.13467,16.94317 -0.28437,25.43115 -0.75562,52.91828 -6.51067,107.96268 11.99643,158.71223 3.50091,9.52055 8.87055,18.87733 15.995,26.31"
       id="path3942"
       inkscape:connector-curvature="0"
       transform="translate(-336.72742,-49.201375)" />
  </g>
  <g
     style="display:inline"
     inkscape:label="genou droit"
     id="g3985"
     inkscape:groupmode="layer"
     transform="translate(-78.489679,-150.38263)"
     sodipodi:insensitive="true">
    <path
       style="fill:#00ff00;fill-opacity:1;stroke:none;stroke-width:0.2;stroke-miterlimit:4;stroke-dasharray:none;stroke-opacity:1"
       d="m 87.175481,438.3204 c -0.14685,-0.24919 20.627429,-18.21569 40.154299,-18.68946 0.62353,-0.0152 1.24221,-0.0158 1.85742,-0.004 19.07128,0.36628 34.21009,13.59287 49.91211,34.34961 10.7284,14.18205 23.19192,40.51134 29.11243,54.41517 0.20111,8.38645 0.11568,16.81758 -0.30095,25.25666 -0.75562,52.91829 -6.51067,107.96269 11.99643,158.71224 3.50091,9.52055 8.87055,18.87733 16.0392,26.35895 -11.20967,11.09162 -28.74335,14.65668 -48.72211,14.3313 -16.52601,-0.26916 -35.65615,-6.51932 -51.78516,-18.57033 -12.98222,-9.69984 -19.62581,-24.5511 -23.75,-39.2871 -5.90069,-21.08358 -5.69231,-30.81598 -8.39258,-46.25 -2.90237,-16.58916 -8.392579,-49.82031 -8.392579,-49.82031 l -26.924347,-21.45078 -0.0313,-111.0553 z"
       id="path4010"
       transform="translate(78.489679,150.38263)"
       inkscape:connector-curvature="0"
       sodipodi:nodetypes="cccsccccsssscccc" />
  </g>
  <g
     transform="translate(-78.489679,-150.38263)"
     inkscape:groupmode="layer"
     id="g4124"
     inkscape:label="bras gauche ligne"
     style="display:none"
     sodipodi:insensitive="true">
    <path
       style="fill:none;fill-opacity:1;stroke:#000000;stroke-width:0.2;stroke-miterlimit:4;stroke-dasharray:none;stroke-opacity:1"
       d="m 762.11479,635.41653 c 6.58741,30.54606 13.58168,61.02168 18.77779,91.84519 5.3562,41.6286 16.19548,82.29021 22.4668,123.76367 1.43619,18.18174 5.09163,37.94263 -3.13282,55.01953 -0.1051,0.22508 -0.22104,0.44052 -0.33008,0.66211 16.91801,14.25718 46.22807,14.07151 69.18164,12.52344 21.78044,-1.46896 49.7278,-3.32415 61.8711,-21.46485 10.74829,-16.05669 1.88953,-39.95652 -0.25195,-60.60937 -1.5313,-14.76816 -5.38055,-33.48521 -8.58594,-47.98242 -10.89696,-49.28434 -36.11389,-105.06869 -46.21485,-144.19922 -9.84033,-38.12088 -14.37686,-68.78666 -18.60546,-121.35352 -3.11832,1.64179 -6.36312,3.04559 -9.78428,4.09536"
       id="path4156"
       transform="translate(-336.72742,-49.201375)"
       inkscape:connector-curvature="0" />
  </g>
  <g
     style="display:inline"
     inkscape:label="bras gauche"
     id="g3981"
     inkscape:groupmode="layer"
     transform="translate(-78.489679,-150.38263)"
     sodipodi:insensitive="true">
    <path
       inkscape:connector-curvature="0"
       transform="translate(-336.72742,-49.201375)"
       id="path3983"
       d="m 762.11479,635.41653 c 6.58741,30.54606 13.58168,61.02168 18.77779,91.84519 5.3562,41.6286 16.19548,82.29021 22.4668,123.76367 1.43619,18.18174 5.09163,37.94263 -3.13282,55.01953 -0.1051,0.22508 -0.22104,0.44052 -0.33008,0.66211 16.91801,14.25718 46.22807,14.07151 69.18164,12.52344 21.78044,-1.46896 49.7278,-3.32415 61.8711,-21.46485 10.74829,-16.05669 1.88953,-39.95652 -0.25195,-60.60937 -1.5313,-14.76816 -5.38055,-33.48521 -8.58594,-47.98242 -10.89696,-49.28434 -36.11389,-105.06869 -46.21485,-144.19922 -9.84033,-38.12088 -14.37686,-68.78666 -18.60546,-121.35352 -3.11832,1.64179 -6.36312,3.04559 -9.78428,4.09536 l -9.3792,-6.01041 -102.56309,22.03386 z"
       style="fill:#00ff00;fill-opacity:1;stroke:none;stroke-width:0.2;stroke-miterlimit:4;stroke-dasharray:none;stroke-opacity:1"
       sodipodi:nodetypes="cccccsssssccccc" />
  </g>
  <g
     style="display:none"
     inkscape:label="bras droit ligne"
     id="g3357"
     inkscape:groupmode="layer"
     transform="translate(-78.489679,-150.38263)"
     sodipodi:insensitive="true">
    <path
       style="fill:none;fill-opacity:1;stroke:#000000;stroke-width:0.2;stroke-miterlimit:4;stroke-dasharray:none;stroke-opacity:1"
       d="m 602.48877,586.74647 4.23865,0.0849 c 0,0 18.53766,60.64413 20.24029,110.16606 1.49833,43.57989 -3.16163,95.09079 -0.32651,131.8249 2.46222,31.90259 9.45013,71.21239 30.55712,89.90358 17.75806,15.72556 46.53723,13.18202 70.2056,11.61676 22.74444,-1.50416 51.83204,-1.6398 65.40737,-19.95052 10.36905,-13.98601 8.61951,-26.82441 7.82868,-46.97209 -0.65075,-16.57901 -8.73295,-53.07057 -13.90562,-78.12545 -5.17267,-25.05487 -8.44596,-51.80504 -11.60073,-68.09413 -7.58086,-39.1425 -17.17259,-82.0749 -17.17259,-82.0749 l 4.15421,0.28966"
       id="path3368"
       transform="translate(-336.72742,-49.201375)"
       inkscape:connector-curvature="0" />
  </g>
  <g
     transform="translate(-78.489679,-150.38263)"
     inkscape:groupmode="layer"
     id="g3977"
     inkscape:label="bras droit"
     style="display:inline"
     sodipodi:insensitive="true">
    <path
       inkscape:connector-curvature="0"
       transform="translate(-336.72742,-49.201375)"
       id="path3979"
       d="m 602.48877,586.74647 4.23865,0.0849 c 0,0 18.53766,60.64413 20.24029,110.16606 1.49833,43.57989 -3.16163,95.09079 -0.32651,131.8249 2.46222,31.90259 9.45013,71.21239 30.55712,89.90358 17.75806,15.72556 46.53723,13.18202 70.2056,11.61676 22.74444,-1.50416 51.83204,-1.6398 65.40737,-19.95052 10.36905,-13.98601 8.61951,-26.82441 7.82868,-46.97209 -0.65075,-16.57901 -8.73295,-53.07057 -13.90562,-78.12545 -5.17267,-25.05487 -8.44596,-51.80504 -11.60073,-68.09413 -7.58086,-39.1425 -17.17259,-82.0749 -17.17259,-82.0749 l 4.15421,0.28966 -16.58655,-88.83364 -128.33523,-20.6792 z"
       style="fill:#00ff00;fill-opacity:1;stroke:none;stroke-width:0.2;stroke-miterlimit:4;stroke-dasharray:none;stroke-opacity:1"
       sodipodi:nodetypes="ccssssssssccccc" />
  </g>
  <g
     transform="translate(-78.489679,-150.38263)"
     inkscape:groupmode="layer"
     id="g4110"
     inkscape:label="face ligne"
     style="display:none"
     sodipodi:insensitive="true">
    <path
       style="fill:none;fill-opacity:1;stroke:#000000;stroke-width:0.2;stroke-miterlimit:4;stroke-dasharray:none;stroke-opacity:1"
       d="m 847.49394,527.69064 0.0114,0.0255"
       id="path3405"
       transform="translate(-336.72742,-49.201375)"
       inkscape:connector-curvature="0" />
    <path
       style="fill:none;fill-opacity:1;stroke:#000000;stroke-width:0.2;stroke-miterlimit:4;stroke-dasharray:none;stroke-opacity:1"
       d="m 591.31905,523.32924 2.23966,-2.85594 c 0,0 -14.00821,-12.80543 -19.06663,-20.70813 -18.23818,-28.49324 -39.24815,-59.20713 -37.58858,-99.76308 1.5893,-38.83866 21.44915,-81.60637 47.6901,-101.38353 -0.0497,-14.06391 13.31528,-37.28391 23.99113,-47.60344 13.84918,-13.38695 33.15213,-20.88585 52.40166,-20.20305 17.05113,0.60482 31.95213,6.82825 43.81536,17.42513 10.35611,9.25064 20.94762,28.39051 21.21321,39.64849 0,0 4.53184,-1.1098 12.62691,-1.01015 8.27399,0.10185 12.50063,1.26268 12.50063,1.26268 1.00066,-12.39361 10.1104,-28.2927 21.33947,-39.26968 14.7343,-14.40353 37.40371,-21.7792 57.95751,-20.32932 19.79163,1.39611 36.14571,9.94692 48.71665,25.29714 10.90534,13.31637 19.42374,40.15898 15.1755,51.727 22.49818,19.46309 29.46396,57.89091 30.30457,84.09519 0.70168,21.87345 1.12306,46.01412 -10.58122,68.01197 -13.76733,25.8753 -30.70638,43.81994 -57.099,61.79264 -3.30773,2.25248 -11.11168,4.54568 -11.11168,4.54568 l 1.64964,3.6818"
       id="path3403"
       transform="translate(-336.72742,-49.201375)"
       inkscape:connector-curvature="0" />
  </g>
  <g
     style="display:inline"
     inkscape:label="face"
     id="g3971"
     inkscape:groupmode="layer"
     transform="translate(-78.489679,-150.38263)"
     sodipodi:insensitive="true">
    <path
       inkscape:connector-curvature="0"
       transform="translate(-336.72742,-49.201375)"
       id="path3973"
       d="m 847.49394,527.69064 0.0114,0.0255"
       style="fill:none;fill-opacity:1;stroke:#000000;stroke-width:0.2;stroke-miterlimit:4;stroke-dasharray:none;stroke-opacity:1" />
    <path
       inkscape:connector-curvature="0"
       transform="translate(-336.72742,-49.201375)"
       id="path3975"
       d="m 591.31905,523.32924 2.23966,-2.85594 c 0,0 -14.00821,-12.80543 -19.06663,-20.70813 -18.23818,-28.49324 -39.24815,-59.20713 -37.58858,-99.76308 1.5893,-38.83866 21.44915,-81.60637 47.6901,-101.38353 -0.0497,-14.06391 13.31528,-37.28391 23.99113,-47.60344 13.84918,-13.38695 33.15213,-20.88585 52.40166,-20.20305 17.05113,0.60482 31.95213,6.82825 43.81536,17.42513 10.35611,9.25064 20.94762,28.39051 21.21321,39.64849 0,0 4.53184,-1.1098 12.62691,-1.01015 8.27399,0.10185 12.50063,1.26268 12.50063,1.26268 1.00066,-12.39361 10.1104,-28.2927 21.33947,-39.26968 14.7343,-14.40353 37.40371,-21.7792 57.95751,-20.32932 19.79163,1.39611 36.14571,9.94692 48.71665,25.29714 10.90534,13.31637 19.42374,40.15898 15.1755,51.727 22.49818,19.46309 29.46396,57.89091 30.30457,84.09519 0.70168,21.87345 1.12306,46.01412 -10.58122,68.01197 -13.76733,25.8753 -30.70638,43.81994 -57.099,61.79264 -3.30773,2.25248 -11.11168,4.54568 -11.11168,4.54568 l 1.64964,3.6818 -120.49334,28.24719 z"
       style="fill:#00ff00;fill-opacity:1;stroke:#00ff00;stroke-width:0.2;stroke-miterlimit:4;stroke-dasharray:none;stroke-opacity:1"
       sodipodi:nodetypes="ccsscssscscssscssscccc" />
  </g>
  <g
     style="display:inline"
     transform="translate(-78.489679,-150.38263)"
     inkscape:groupmode="layer"
     id="g4104"
     inkscape:label="cou blanc"
     sodipodi:insensitive="true">
    <path
       style="fill:#9aff9b;fill-opacity:1;stroke:none;stroke-width:0.2;stroke-miterlimit:4;stroke-dasharray:none;stroke-opacity:1"
       d="m 789.60352,530.29492 c -5.29589,1.3416 -10.63378,2.47425 -15.98438,3.38867 -26.24688,3.83154 -53.11759,3.80563 -79.49609,0.84766 5.67947,2.36346 11.61109,4.95141 15.60351,7.0293 8.60145,4.47669 14.45229,7.14307 24.36914,17.92968 7.15081,7.77797 13.89063,23.99219 13.89063,23.99219 2.25824,-10.48976 5.92399,-17.87783 10.35351,-23.48633 5.45069,-6.90147 10.93738,-13.9024 17.55078,-19.69921 3.4364,-3.01209 8.69445,-6.68922 13.7129,-10.00196 z"
       transform="translate(-336.72742,-49.201375)"
       id="path4106"
       inkscape:connector-curvature="0" />
  </g>
  <g
     transform="translate(-78.489679,-150.38263)"
     style="display:inline"
     inkscape:groupmode="layer"
     id="g4094"
     inkscape:label="visage blanc"
     sodipodi:insensitive="true">
    <path
       style="fill:#9aff9b;fill-opacity:1;stroke:none;stroke-width:0.2;stroke-miterlimit:4;stroke-dasharray:none;stroke-opacity:1"
       d="m 224.25387,370.50921 c 3.07166,24.99254 20.9506,56.66674 33.33503,69.95307 18.842,20.21418 47.20718,29.70078 73.99368,36.49176 26.01319,6.59494 56.42004,6.61222 78.03428,6.18718 26.5781,-0.52266 51.56109,-6.77152 77.52921,-18.68782 25.14795,-11.53994 44.21089,-29.57465 59.47273,-52.6542 7.86676,-11.89641 11.12434,-22.94416 13.76333,-37.24938 -15.41101,14.61067 -47.0766,24.82958 -80.81221,32.57742 -27.86255,6.39901 -56.5177,10.48421 -85.10535,10.60661 -29.23617,0.12518 -58.47719,-4.26766 -87.12566,-10.10153 -15.47781,-3.15184 -26.54527,-5.91726 -41.41625,-11.99556 -14.66198,-5.99287 -30.45512,-16.28198 -41.66879,-25.12755 z"
       id="path4098"
       inkscape:connector-curvature="0"
       sodipodi:nodetypes="cssssscssssc" />
  </g>
  <g
     transform="translate(-78.489679,-150.38263)"
     inkscape:label="narines"
     id="g4068"
     inkscape:groupmode="layer"
     style="display:inline"
     sodipodi:insensitive="true">
    <path
       sodipodi:nodetypes="csssc"
       inkscape:connector-curvature="0"
       id="path4070"
       d="m 357.06764,377.3548 c 0,0 18.63887,-0.31338 27.43652,1.02462 3.42805,0.52135 7.86471,2.13599 7.73713,4.95191 -0.11054,2.43998 -6.39291,2.78036 -9.35302,2.27453 -11.96108,-2.04394 -25.82063,-8.25106 -25.82063,-8.25106 z"
       style="fill:#9aff9b;fill-opacity:1;stroke:none;stroke-width:0.2;stroke-miterlimit:4;stroke-dasharray:none;stroke-opacity:1" />
    <path
       style="fill:#9aff9b;fill-opacity:1;stroke:none;stroke-width:0.2;stroke-miterlimit:4;stroke-dasharray:none;stroke-opacity:1"
       d="m 450.07521,376.09211 c 0,0 -18.63887,-0.31338 -27.43652,1.02462 -3.42805,0.52135 -7.86471,2.13599 -7.73713,4.95191 0.11054,2.43998 6.39291,2.78036 9.35302,2.27453 11.96108,-2.04394 25.82063,-8.25106 25.82063,-8.25106 z"
       id="path4072"
       inkscape:connector-curvature="0"
       sodipodi:nodetypes="csssc" />
  </g>
  <g
     transform="translate(-78.489679,-150.38263)"
     style="display:inline"
     inkscape:groupmode="layer"
     id="g4090"
     inkscape:label="oeil droit"
     sodipodi:insensitive="true">
    <path
       sodipodi:nodetypes="cscsssc"
       inkscape:connector-curvature="0"
       id="path4092"
       d="m 261.12443,251.81629 c 0,0 37.55948,9.2925 56.56855,8.08122 20.21809,-1.28832 58.58884,-16.16244 58.58884,-16.16244 0,0 -9.38124,-26.25042 -19.69797,-34.59773 -11.46589,-9.2771 -27.49021,-14.77065 -42.17387,-13.38452 -14.09948,1.33098 -27.75945,9.80614 -37.37564,20.20305 -8.87943,9.60033 -15.90991,35.86042 -15.90991,35.86042 z"
       style="fill:#ffffff;fill-opacity:1;stroke:none;stroke-width:0.2;stroke-miterlimit:4;stroke-dasharray:none;stroke-opacity:1" />
  </g>
  <g
     transform="translate(-78.489679,-150.38263)"
     style="display:inline"
     inkscape:groupmode="layer"
     id="g4086"
     inkscape:label="oeil gauche"
     sodipodi:insensitive="true">
    <path
       sodipodi:nodetypes="cscsssc"
       inkscape:connector-curvature="0"
       id="path4088"
       d="m 545.98744,249.79598 c 0,0 -37.55948,9.2925 -56.56855,8.08122 -20.21809,-1.28832 -58.58884,-16.16244 -58.58884,-16.16244 0,0 9.38124,-26.25042 19.69797,-34.59773 11.46589,-9.2771 27.49021,-14.77065 42.17387,-13.38452 14.09948,1.33098 27.75945,9.80614 37.37564,20.20305 8.87943,9.60033 15.90991,35.86042 15.90991,35.86042 z"
       style="fill:#ffffff;fill-opacity:1;stroke:none;stroke-width:0.2;stroke-miterlimit:4;stroke-dasharray:none;stroke-opacity:1" />
  </g>
  <g
     transform="translate(-78.489679,-150.38263)"
     style="display:inline"
     inkscape:groupmode="layer"
     id="g4080"
     inkscape:label="pupille droite"
     sodipodi:insensitive="true">
    <path
       style="fill:#000000;fill-opacity:1;stroke:#000000;stroke-width:0.2;stroke-miterlimit:4;stroke-dasharray:none;stroke-opacity:1"
       d="m 307.44811,231.21387 c 0.19749,-8.65463 11.99833,-16.94556 20.64847,-17.28712 7.87618,-0.31099 20.37899,6.62015 21.60889,14.40593 1.43148,9.0618 -9.5944,19.30361 -18.72771,20.16829 -9.68914,0.91732 -23.75168,-7.55717 -23.52965,-17.2871 z"
       id="path4082"
       inkscape:connector-curvature="0"
       sodipodi:nodetypes="sssss" />
    <circle
       r="3.75"
       cy="234.32646"
       cx="339.82144"
       style="display:inline;fill:#ffffff;fill-opacity:1;stroke:none;stroke-width:0.1167117;stroke-miterlimit:4;stroke-dasharray:none;stroke-opacity:1"
       id="circle4084"
       transform="matrix(1.7619048,0,0,1.6666667,-264.26871,-155.86049)" />
  </g>
  <g
     transform="translate(-78.489679,-150.38263)"
     style="display:inline"
     inkscape:groupmode="layer"
     id="g4074"
     inkscape:label="pupille gauche"
     sodipodi:insensitive="true">
    <path
       style="display:inline;fill:#000000;fill-opacity:1;stroke:#000000;stroke-width:0.2;stroke-miterlimit:4;stroke-dasharray:none;stroke-opacity:1"
       d="m 481.8095,231.04742 c 0.19749,-8.65463 11.99833,-16.94556 20.64847,-17.28712 7.87618,-0.31099 20.37899,6.62015 21.60889,14.40593 1.43148,9.0618 -9.5944,19.30361 -18.72771,20.16829 -9.68914,0.91732 -23.75168,-7.55717 -23.52965,-17.2871 z"
       id="path4076"
       inkscape:connector-curvature="0"
       sodipodi:nodetypes="sssss" />
    <circle
       r="3.75"
       cy="234.32646"
       cx="339.82144"
       transform="matrix(1.7619048,0,0,1.6666667,-92.125857,-157.28907)"
       id="circle4078"
       style="display:inline;fill:#ffffff;fill-opacity:1;stroke:none;stroke-width:0.1167117;stroke-miterlimit:4;stroke-dasharray:none;stroke-opacity:1" />
  </g>
</svg>
