<?xml version="1.0" encoding="UTF-8" standalone="no"?>
<!-- Created with Inkscape (http://www.inkscape.org/) -->

<svg
   xmlns:dc="http://purl.org/dc/elements/1.1/"
   xmlns:cc="http://creativecommons.org/ns#"
   xmlns:rdf="http://www.w3.org/1999/02/22-rdf-syntax-ns#"
   xmlns:svg="http://www.w3.org/2000/svg"
   xmlns="http://www.w3.org/2000/svg"
   xmlns:xlink="http://www.w3.org/1999/xlink"
   xmlns:sodipodi="http://sodipodi.sourceforge.net/DTD/sodipodi-0.dtd"
   xmlns:inkscape="http://www.inkscape.org/namespaces/inkscape"
   width="744.09448819"
   height="1052.3622047"
   id="svg2"
   version="1.1"
   inkscape:version="0.48.4 r9939"
   sodipodi:docname="frog.svg">
  <defs
     id="defs4" />
  <sodipodi:namedview
     id="base"
     pagecolor="#ffffff"
     bordercolor="#666666"
     borderopacity="1.0"
     inkscape:pageopacity="0.0"
     inkscape:pageshadow="2"
     inkscape:zoom="0.98994949"
     inkscape:cx="-186.131"
     inkscape:cy="757.0548"
     inkscape:document-units="px"
     inkscape:current-layer="layer13"
     showgrid="false"
     inkscape:window-width="2495"
     inkscape:window-height="1416"
     inkscape:window-x="65"
     inkscape:window-y="24"
     inkscape:window-maximized="1" />
  <metadata
     id="metadata7">
    <rdf:RDF>
      <cc:Work
         rdf:about="">
        <dc:format>image/svg+xml</dc:format>
        <dc:type
           rdf:resource="http://purl.org/dc/dcmitype/StillImage" />
        <dc:title></dc:title>
      </cc:Work>
    </rdf:RDF>
  </metadata>
  <g
     inkscape:label="base"
     inkscape:groupmode="layer"
     id="layer1"
     style="opacity:0.40136055;display:none">
    <image
       y="-700.47607"
       x="96.647873"
       id="image3815"
       xlink:href="file:///home/luc/Downloads/IMG_20150815_102526.jpg"
       height="645.71417"
       width="860.95233"
       transform="matrix(0,1,-1,0,0,0)" />
  </g>
  <g
     inkscape:groupmode="layer"
     id="layer6"
     inkscape:label="dos">
    <path
       style="fill:none;stroke:#000000;stroke-width:0.5;stroke-linecap:butt;stroke-linejoin:miter;stroke-miterlimit:4;stroke-opacity:1;stroke-dasharray:none"
       d="m 195.89286,842.00504 c 0,0 -6.30024,5.31698 -17.5,3.92857 -18.58104,-2.30345 -34.529,-36.41718 -45.71429,-58.92857 C 121.68719,764.88392 116.9947,739.66139 115,715.04075 c -4.15646,-51.30312 11.25826,-93.30916 26.60714,-136.60714 7.00869,-19.77095 17.28863,-44.65335 32.14286,-59.46429 13.96019,-13.91949 27.33888,-18.64912 41.60714,-31.25 10.57407,-9.33838 26.03408,-31.49498 22.85715,-37.14285"
       id="path3852"
       inkscape:connector-curvature="0"
       sodipodi:nodetypes="cssssssc" />
  </g>
  <g
     inkscape:groupmode="layer"
     id="layer4"
     inkscape:label="genou gauche"
     style="display:inline" />
  <g
     inkscape:groupmode="layer"
     id="layer5"
     inkscape:label="genou droit"
     style="display:inline">
    <path
       style="fill:none;stroke:#000000;stroke-width:0.5;stroke-linecap:butt;stroke-linejoin:miter;stroke-miterlimit:4;stroke-opacity:1;stroke-dasharray:none"
       d="m 165.66502,588.70216 c -0.14685,-0.24919 20.6267,-18.21405 40.15356,-18.68782 19.9532,-0.48411 35.56179,12.91888 51.77032,34.34519 15.04079,19.88266 33.49121,63.63961 32.57742,63.63961"
       id="path3847"
       inkscape:connector-curvature="0"
       sodipodi:nodetypes="cssc" />
    <path
       style="fill:none;stroke:#000000;stroke-width:0.5;stroke-linecap:butt;stroke-linejoin:miter;stroke-miterlimit:4;stroke-opacity:1;stroke-dasharray:none"
       d="m 173.39286,729.50504 c 0,0 5.49048,33.23227 8.39285,49.82143 2.70027,15.43402 2.49217,25.16642 8.39286,46.25 4.12419,14.73601 10.76778,29.58587 23.75,39.28571 16.12901,12.051 35.25971,18.30228 51.78572,18.57143 21.5155,0.35041 40.1953,-3.81055 51.25,-16.96428"
       id="path3849"
       inkscape:connector-curvature="0"
       sodipodi:nodetypes="cssssc" />
  </g>
  <g
     inkscape:groupmode="layer"
     id="layer3"
     inkscape:label="bras gauche">
    <path
       style="fill:none;stroke:#000000;stroke-width:0.5;stroke-linecap:butt;stroke-linejoin:miter;stroke-miterlimit:4;stroke-opacity:1;stroke-dasharray:none"
       d="m 459.87195,854.37228 c 16.16896,17.41273 47.9531,17.31145 72.47844,15.65737 21.78043,-1.46896 49.72855,-3.32504 61.87185,-21.46574 10.74829,-16.05671 1.88894,-39.95631 -0.25254,-60.60916 -1.5313,-14.76816 -5.38091,-33.48503 -8.5863,-47.98224 C 574.48644,690.68817 549.26988,634.90376 539.16892,595.77323 529.06796,556.6427 524.55599,525.43653 520.22856,470.26178"
       id="path3841"
       inkscape:connector-curvature="0"
       sodipodi:nodetypes="csssszc" />
    <path
       style="fill:none;stroke:#000000;stroke-width:0.5;stroke-linecap:butt;stroke-linejoin:miter;stroke-miterlimit:4;stroke-opacity:1;stroke-dasharray:none"
       d="m 530,559.68361 c 0,0 9.49273,-2.28124 13.92858,-2.32143 19.33562,-0.17516 28.6426,28.21586 31.42856,50 3.14891,24.6221 -7.32142,73.75 -7.32142,73.75"
       id="path3844"
       inkscape:connector-curvature="0"
       sodipodi:nodetypes="cssc" />
  </g>
  <g
     inkscape:groupmode="layer"
     id="layer2"
     inkscape:label="bras droit">
    <path
       style="fill:none;stroke:#000000;stroke-width:0.5;stroke-linecap:butt;stroke-linejoin:miter;stroke-miterlimit:4;stroke-opacity:1;stroke-dasharray:none"
       d="m 270,537.63004 c 0,0 18.53766,60.64412 20.24029,110.16605 1.49833,43.5799 -3.16163,95.0908 -0.32651,131.8249 2.46222,31.90259 9.45013,71.21239 30.55712,89.90358 17.75806,15.72556 46.53723,13.18202 70.2056,11.61676 22.74444,-1.50416 51.83204,-1.6398 65.40737,-19.95052 10.36905,-13.98601 8.61951,-26.82441 7.82868,-46.97209 -0.65075,-16.57901 -8.73295,-53.07057 -13.90562,-78.12545 -5.17267,-25.05487 -8.44596,-51.80504 -11.60073,-68.09413 -7.58086,-39.1425 -17.17259,-82.0749 -17.17259,-82.0749"
       id="path3819"
       inkscape:connector-curvature="0"
       sodipodi:nodetypes="cssssssssc" />
  </g>
  <g
     inkscape:groupmode="layer"
     id="layer7"
     inkscape:label="face">
    <path
       style="fill:none;stroke:#000000;stroke-width:0.5;stroke-linecap:butt;stroke-linejoin:miter;stroke-miterlimit:4;stroke-opacity:1;stroke-dasharray:none"
       d="m 256.83129,471.27193 c 0,0 -14.00821,-12.80543 -19.06663,-20.70813 -18.23818,-28.49324 -39.24815,-59.20713 -37.58858,-99.76308 1.5893,-38.83867 21.44915,-81.60637 47.6901,-101.38354 -0.0497,-14.06391 13.31528,-37.28391 23.99113,-47.60344 13.84918,-13.38695 33.15213,-20.88585 52.40166,-20.20305 17.05113,0.60482 31.95213,6.82825 43.81536,17.42513 10.35611,9.25064 20.94762,28.39051 21.21321,39.64849 0,0 4.53184,-1.1098 12.62691,-1.01015 8.27399,0.10185 12.50063,1.26268 12.50063,1.26268 1.00066,-12.39361 10.1104,-28.2927 21.33947,-39.26968 14.7343,-14.40352 37.40371,-21.7792 57.95751,-20.32932 19.79163,1.39611 40.96714,10.66121 53.53808,26.01143 10.90534,13.31637 14.60231,39.44469 10.35407,51.01271 22.49818,19.4631 29.46396,57.89092 30.30457,84.0952 0.70168,21.87345 1.12306,46.01412 -10.58122,68.01197 -13.76733,25.8753 -30.70638,43.81994 -57.099,61.79263 -3.30773,2.25248 -11.11168,4.54568 -11.11168,4.54568"
       id="path3855"
       inkscape:connector-curvature="0"
       sodipodi:nodetypes="csscssscscssscsssc" />
  </g>
  <g
     inkscape:groupmode="layer"
     id="layer9"
     inkscape:label="cou blanc">
    <path
       style="fill:none;stroke:#000000;stroke-width:0.5;stroke-linecap:butt;stroke-linejoin:miter;stroke-miterlimit:4;stroke-opacity:1;stroke-dasharray:none"
       d="m 341.17902,478.84807 c 0,0 21.92577,8.36138 31.8198,13.51079 8.60145,4.47669 14.45309,7.1436 24.36994,17.93021 7.15081,7.77797 13.8896,23.99113 13.8896,23.99113 2.25824,-10.48976 5.92454,-17.87755 10.35406,-23.48605 5.45069,-6.90147 10.93799,-13.90117 17.5514,-19.69798 8.33999,-7.31021 27.52666,-18.68782 27.52666,-18.68782"
       id="path3861"
       inkscape:connector-curvature="0"
       sodipodi:nodetypes="csscssc" />
  </g>
  <g
     inkscape:groupmode="layer"
     id="layer8"
     inkscape:label="visage blanc">
    <path
       style="fill:none;stroke:#000000;stroke-width:0.5;stroke-linecap:butt;stroke-linejoin:miter;stroke-miterlimit:4;stroke-opacity:1;stroke-dasharray:none"
       d="m 224.25387,370.50921 c 3.07166,24.99254 20.9506,56.66674 33.33503,69.95307 18.842,20.21418 47.20718,29.70078 73.99368,36.49176 26.01319,6.59494 56.42004,6.61222 78.03428,6.18718 26.5781,-0.52266 51.56109,-6.77152 77.52921,-18.68782 25.14795,-11.53994 44.21089,-29.57465 59.47273,-52.6542 7.86676,-11.89641 11.12434,-22.94416 13.76333,-37.24938 -15.41101,14.61067 -47.0766,24.82958 -80.81221,32.57742 -27.86255,6.39901 -56.5177,10.48421 -85.10535,10.60661 -29.23617,0.12518 -58.47719,-4.26766 -87.12566,-10.10153 -15.47781,-3.15184 -26.54527,-5.91726 -41.41625,-11.99556 -14.66198,-5.99287 -30.45512,-16.28198 -41.66879,-25.12755 z"
       id="path3858"
       inkscape:connector-curvature="0"
       sodipodi:nodetypes="cssssscssssc" />
  </g>
  <g
     inkscape:groupmode="layer"
     id="layer10"
     inkscape:label="oeil droit">
    <path
       style="fill:none;stroke:#000000;stroke-width:0.5;stroke-linecap:butt;stroke-linejoin:miter;stroke-opacity:1;stroke-miterlimit:4;stroke-dasharray:none"
       d="m 261.12443,251.81629 c 0,0 37.55948,9.2925 56.56855,8.08122 20.21809,-1.28832 58.58884,-16.16244 58.58884,-16.16244 0,0 -9.38124,-26.25042 -19.69797,-34.59773 -11.46589,-9.2771 -27.49021,-14.77065 -42.17387,-13.38452 -14.09948,1.33098 -27.75945,9.80614 -37.37564,20.20305 -8.87943,9.60033 -15.90991,35.86042 -15.90991,35.86042 z"
       id="path3864"
       inkscape:connector-curvature="0"
       sodipodi:nodetypes="cscsssc" />
    <path
       sodipodi:nodetypes="cscsssc"
       inkscape:connector-curvature="0"
       id="path3866"
       d="m 261.12443,251.81629 c 0,0 37.55948,9.2925 56.56855,8.08122 20.21809,-1.28832 58.58884,-16.16244 58.58884,-16.16244 0,0 -9.38124,-26.25042 -19.69797,-34.59773 -11.46589,-9.2771 -27.49021,-14.77065 -42.17387,-13.38452 -14.09948,1.33098 -27.75945,9.80614 -37.37564,20.20305 -8.87943,9.60033 -15.90991,35.86042 -15.90991,35.86042 z"
       style="fill:none;stroke:#000000;stroke-width:0.5;stroke-linecap:butt;stroke-linejoin:miter;stroke-opacity:1;stroke-miterlimit:4;stroke-dasharray:none" />
  </g>
  <g
     inkscape:groupmode="layer"
     id="layer11"
     inkscape:label="oeil gauche">
    <path
       sodipodi:nodetypes="cscsssc"
       inkscape:connector-curvature="0"
       id="path3870"
       d="m 545.98744,249.79598 c 0,0 -37.55948,9.2925 -56.56855,8.08122 -20.21809,-1.28832 -58.58884,-16.16244 -58.58884,-16.16244 0,0 9.38124,-26.25042 19.69797,-34.59773 11.46589,-9.2771 27.49021,-14.77065 42.17387,-13.38452 14.09948,1.33098 27.75945,9.80614 37.37564,20.20305 8.87943,9.60033 15.90991,35.86042 15.90991,35.86042 z"
       style="fill:none;stroke:#000000;stroke-width:0.5;stroke-linecap:butt;stroke-linejoin:miter;stroke-miterlimit:4;stroke-opacity:1;stroke-dasharray:none" />
  </g>
  <g
     inkscape:groupmode="layer"
     id="layer12"
     inkscape:label="pupille droite">
    <path
       style="fill:#000000;fill-opacity:1;stroke:#000000;stroke-width:0.5;stroke-linecap:butt;stroke-linejoin:miter;stroke-miterlimit:4;stroke-opacity:1;stroke-dasharray:none"
       d="m 327.54197,239.44192 c 0.10386,-4.55151 6.30998,-8.91175 10.85913,-9.09138 4.14212,-0.16355 10.71741,3.48157 11.36422,7.57615 0.75282,4.76564 -5.04574,10.15186 -9.84899,10.6066 -5.09557,0.48242 -12.49113,-3.97435 -12.37436,-9.09137 z"
       id="path3874"
       inkscape:connector-curvature="0"
       sodipodi:nodetypes="sssss" />
  </g>
  <g
     inkscape:groupmode="layer"
     id="layer13"
     inkscape:label="pupille gauche">
    <path
       sodipodi:nodetypes="sssss"
       inkscape:connector-curvature="0"
       id="path3877"
       d="m 500.27806,237.42161 c 0.10386,-4.55151 6.30998,-8.91175 10.85913,-9.09138 4.14212,-0.16355 10.71741,3.48157 11.36422,7.57615 0.75282,4.76564 -5.04574,10.15186 -9.84899,10.6066 -5.09557,0.48242 -12.49113,-3.97435 -12.37436,-9.09137 z"
       style="fill:#000000;fill-opacity:1;stroke:#000000;stroke-width:0.5;stroke-linecap:butt;stroke-linejoin:miter;stroke-miterlimit:4;stroke-opacity:1;stroke-dasharray:none" />
  </g>
</svg>
