<?xml version="1.0" encoding="UTF-8" standalone="no"?>
<!-- Created with Inkscape (http://www.inkscape.org/) -->

<svg
   xmlns:dc="http://purl.org/dc/elements/1.1/"
   xmlns:cc="http://creativecommons.org/ns#"
   xmlns:rdf="http://www.w3.org/1999/02/22-rdf-syntax-ns#"
   xmlns:svg="http://www.w3.org/2000/svg"
   xmlns="http://www.w3.org/2000/svg"
   xmlns:sodipodi="http://sodipodi.sourceforge.net/DTD/sodipodi-0.dtd"
   xmlns:inkscape="http://www.inkscape.org/namespaces/inkscape"
   width="486"
   height="705"
   id="svg2"
   version="1.1"
   inkscape:version="0.48.4 r9939"
   sodipodi:docname="frog-transparent.svg">
  <defs
     id="defs4" />
  <sodipodi:namedview
     id="base"
     pagecolor="#ffffff"
     bordercolor="#666666"
     borderopacity="1.0"
     inkscape:pageopacity="0.0"
     inkscape:pageshadow="2"
     inkscape:zoom="0.98994949"
     inkscape:cx="44.700731"
     inkscape:cy="498.44603"
     inkscape:document-units="px"
     inkscape:current-layer="layer15"
     showgrid="false"
     inkscape:window-width="1881"
     inkscape:window-height="1176"
     inkscape:window-x="39"
     inkscape:window-y="24"
     inkscape:window-maximized="1"
     units="px"
     fit-margin-top="0"
     fit-margin-left="0"
     fit-margin-right="-150"
     fit-margin-bottom="0" />
  <metadata
     id="metadata7">
    <rdf:RDF>
      <cc:Work
         rdf:about="">
        <dc:format>image/svg+xml</dc:format>
        <dc:type
           rdf:resource="http://purl.org/dc/dcmitype/StillImage" />
        <dc:title></dc:title>
      </cc:Work>
    </rdf:RDF>
  </metadata>
  <g
     inkscape:groupmode="layer"
     id="layer15"
     inkscape:label="complet-transparent"
     style="display:inline"
     transform="translate(0,-357.99194)">
    <g
       id="g4726"
       transform="translate(-451.03171,130.34694)">
      <path
         id="path4292"
         d="m 824.625,228.375 c -18.90631,0.17138 -38.80329,7.44681 -52.15625,20.5 -11.22907,10.97698 -20.31184,26.85639 -21.3125,39.25 0,0 -4.22601,-1.14815 -12.5,-1.25 -8.09507,-0.0996 -12.65625,1 -12.65625,1 C 725.73441,276.61702 715.16861,257.50064 704.8125,248.25 692.94927,237.65312 678.05113,231.41732 661,230.8125 641.75047,230.1297 622.44293,237.61305 608.59375,251 c -10.67585,10.31953 -24.0497,33.56109 -24,47.625 -26.24095,19.77717 -46.0982,62.53633 -47.6875,101.375 -1.65957,40.55595 19.35557,71.25676 37.59375,99.75 5.05842,7.9027 19.0625,20.71875 19.0625,20.71875 l -2.25,2.875 c -0.21882,-0.0856 -0.43931,-0.15479 -0.65625,-0.25 -6.10532,-4.95281 -11.44646,-10.73043 -16.28125,-16.96875 -3.27173,9.01219 -14.19117,23.63658 -22.28125,30.78125 -14.26826,12.60088 -27.66481,17.33051 -41.625,31.25 -14.85423,14.81094 -25.11631,39.6978 -32.125,59.46875 -15.34888,43.29798 -30.78146,85.32188 -26.625,136.625 1.9947,24.62064 6.69612,49.84763 17.6875,71.96875 11.18529,22.51139 27.13771,56.6028 45.71875,58.90625 6.51384,0.80751 11.35765,-0.64267 14.28125,-2 -3.8712,-8.02192 -6.6259,-16.68484 -8.5,-25.21875 -5.55551,-30.50548 -9.88044,-61.36743 -15.25,-91.96875 l 4.46875,2.78125 c 0,0 5.47263,33.22334 8.375,49.8125 2.70027,15.43402 2.50556,25.16642 8.40625,46.25 4.12419,14.73601 10.76778,29.58141 23.75,39.28125 16.12901,12.051 35.25524,18.29335 51.78125,18.5625 19.97457,0.32531 37.49585,-3.24411 48.75,-14.28125 -7.16435,-7.44602 -12.54847,-16.85003 -16.0625,-26.40625 -6.32814,-17.35282 -9.83029,-35.21392 -11.65625,-53.3125 -0.0525,-0.52125 -0.10646,-1.04084 -0.15625,-1.5625 -0.36666,-3.83601 -0.64373,-7.67635 -0.875,-11.53125 -0.0925,-1.54635 -0.17678,-3.10738 -0.25,-4.65625 -0.0163,-0.34337 -0.0471,-0.68777 -0.0625,-1.03125 -0.12851,-2.87992 -0.2112,-5.76944 -0.28125,-8.65625 -0.13785,-5.65613 -0.15905,-11.32915 -0.125,-17 0.0114,-1.85129 0.006,-3.71072 0.0312,-5.5625 0.006,-0.47795 0.0241,-0.95954 0.0312,-1.4375 0.0725,-4.8388 0.18272,-9.66367 0.3125,-14.5 0.0118,-0.43756 0.0192,-0.87502 0.0312,-1.3125 0.0661,-2.40738 0.14731,-4.8142 0.21875,-7.21875 0.04,-1.34375 0.0846,-2.6887 0.125,-4.03125 0.0238,-0.79219 0.0389,-1.58329 0.0625,-2.375 0.0257,-0.85686 0.0372,-1.70625 0.0625,-2.5625 0.0696,-2.36329 0.15546,-4.73605 0.21875,-7.09375 0.0132,-0.48971 0.0185,-0.9793 0.0312,-1.46875 0.003,-0.10448 -0.003,-0.20804 0,-0.3125 0.0679,-2.62412 0.13566,-5.25937 0.1875,-7.875 l -0.0312,0 c 0.0345,-1.73931 0.10023,-3.48383 0.125,-5.21875 0.2256,-4.56961 0.36982,-9.12391 0.40625,-13.6875 -0.0122,-0.008 -0.0191,-0.0237 -0.0312,-0.0312 0.0291,-3.85861 0.004,-7.70944 -0.0937,-11.5625 -5.93293,-13.93144 -18.36502,-40.19252 -29.09375,-54.375 -16.20853,-21.42631 -31.82805,-34.82786 -51.78125,-34.34375 -19.52686,0.47377 -40.27185,18.43831 -40.125,18.6875 l -2.9687,2.8437 c -1.17874,-0.74575 -2.35222,-1.50519 -3.53125,-2.25 12.43872,-11.96754 28.01929,-21.72317 45.53125,-23.25 0.62587,-0.0407 1.25076,-0.0521 1.875,-0.0625 9.36363,-0.15618 18.50672,3.02438 26.3125,7.96875 25.54263,17.93667 40.74564,45.98065 53.34375,74.15625 -2.05638,-37.50511 -9.8091,-74.60869 -20.4375,-110.5625 l 4.1875,0.0937 c 0,0 18.54737,60.63432 20.25,110.15625 1.49833,43.5799 -3.14762,95.0784 -0.3125,131.8125 2.46222,31.90259 9.42426,71.21506 30.53125,89.90625 17.75806,15.72556 46.55038,13.19026 70.21875,11.625 22.74444,-1.50416 51.83092,-1.62678 65.40625,-19.9375 10.36905,-13.98601 8.60333,-26.85232 7.8125,-47 -0.65075,-16.57901 -8.73358,-53.07012 -13.90625,-78.125 -5.17267,-25.05482 -8.43898,-51.80461 -11.59375,-68.0937 -7.58086,-39.1425 -17.15625,-82.0625 -17.15625,-82.0625 l 4.15625,0.28125 c 6.58838,30.54373 13.58556,61.0227 18.78125,91.84375 5.3562,41.6286 16.19744,82.30779 22.46875,123.78125 1.43621,18.18174 5.0682,37.9231 -3.15625,55 -0.10329,0.22121 -0.20541,0.43841 -0.3125,0.65625 16.91793,14.25759 46.20244,14.07934 69.15625,12.53125 21.78043,-1.46896 49.7317,-3.32805 61.875,-21.46875 10.74829,-16.05671 1.89148,-39.9409 -0.25,-60.59375 -1.5313,-14.76816 -5.35711,-33.47154 -8.5625,-47.96875 -10.89696,-49.28434 -36.11779,-105.08822 -46.21875,-144.21875 -9.84016,-38.12021 -14.3654,-68.77917 -18.59375,-121.34375 -3.12236,1.64543 -6.38589,3.01291 -9.8125,4.0625 L 845.84375,524 c 0,0 7.81727,-2.27877 11.125,-4.53125 26.39262,-17.97269 43.32642,-35.9372 57.09375,-61.8125 11.70428,-21.99785 11.26418,-46.12655 10.5625,-68 -0.84061,-26.20428 -7.78307,-64.63065 -30.28125,-84.09375 4.24824,-11.56802 -4.28216,-38.40238 -15.1875,-51.71875 -12.57094,-15.35022 -28.92712,-23.91639 -48.71875,-25.3125 -1.92692,-0.13593 -3.85667,-0.17398 -5.8125,-0.15625 z m 56.03125,378.1875 c -2.3279,0.0211 -5.98958,0.64812 -9,1.25 4.19476,22.27167 9.74486,44.26767 17.125,65.75 5.77696,16.34467 11.78343,32.668 17.5,49.09375 2.77007,-14.73979 8.20107,-47.4169 5.8125,-66.09375 -2.78596,-21.78414 -12.10188,-50.17516 -31.4375,-50 z"
         style="fill:#00ff00;fill-opacity:1;stroke:none;display:inline"
         inkscape:connector-curvature="0" />
      <path
         inkscape:connector-curvature="0"
         id="path4544"
         d="m 789.65625,530.28125 c -5.31233,1.34721 -10.66376,2.48894 -16.03125,3.40625 -26.25364,3.83253 -53.1462,3.804 -79.53125,0.84375 5.68765,2.36647 11.62621,4.95006 15.625,7.03125 8.60145,4.47669 14.45815,7.15089 24.375,17.9375 C 741.24456,567.27797 748,583.46875 748,583.46875 750.25824,572.97899 753.91423,565.6085 758.34375,560 c 5.45069,-6.90147 10.94909,-13.89069 17.5625,-19.6875 3.44595,-3.02046 8.71907,-6.71149 13.75,-10.03125 z"
         style="fill:#97ff96;fill-opacity:1;stroke:none;display:inline" />
      <path
         sodipodi:nodetypes="cssssscssssc"
         inkscape:connector-curvature="0"
         id="path4488"
         d="m 224.25387,370.50921 c 3.07166,24.99254 20.9506,56.66674 33.33503,69.95307 18.842,20.21418 47.20718,29.70078 73.99368,36.49176 26.01319,6.59494 56.42004,6.61222 78.03428,6.18718 26.5781,-0.52266 51.56109,-6.77152 77.52921,-18.68782 25.14795,-11.53994 44.21089,-29.57465 59.47273,-52.6542 7.86676,-11.89641 11.12434,-22.94416 13.76333,-37.24938 -15.41101,14.61067 -47.0766,24.82958 -80.81221,32.57742 -27.86255,6.39901 -56.5177,10.48421 -85.10535,10.60661 -29.23617,0.12518 -58.47719,-4.26766 -87.12566,-10.10153 -15.47781,-3.15184 -26.54527,-5.91726 -41.41625,-11.99556 -14.66198,-5.99287 -30.45512,-16.28198 -41.66879,-25.12755 z"
         style="fill:#9aff9b;fill-opacity:1;stroke:none;display:inline"
         transform="translate(336.72742,49.201375)" />
      <path
         sodipodi:nodetypes="csssc"
         inkscape:connector-curvature="0"
         id="path4570"
         d="m 450.07521,366.09211 c 0,0 -18.63887,-0.31338 -27.43652,1.02462 -3.42805,0.52135 -7.86471,2.13599 -7.73713,4.95191 0.11054,2.43998 6.39291,2.78036 9.35302,2.27453 11.96108,-2.04394 25.82063,-8.25106 25.82063,-8.25106 z"
         style="fill:#96ff97;fill-opacity:1;stroke:none;display:inline"
         transform="translate(336.72742,49.201375)" />
      <path
         style="fill:#99ff9a;fill-opacity:1;stroke:none;display:inline"
         d="m 357.06764,365.3548 c 0,0 18.63887,-0.31338 27.43652,1.02462 3.42805,0.52135 7.86471,2.13599 7.73713,4.95191 -0.11054,2.43998 -6.39291,2.78036 -9.35302,2.27453 -11.96108,-2.04394 -25.82063,-8.25106 -25.82063,-8.25106 z"
         id="path4568"
         inkscape:connector-curvature="0"
         sodipodi:nodetypes="csssc"
         transform="translate(336.72742,49.201375)" />
      <path
         style="fill:#ffffff;fill-opacity:1;stroke:none;display:inline"
         d="m 261.12443,251.81629 c 0,0 37.55948,9.2925 56.56855,8.08122 20.21809,-1.28832 58.58884,-16.16244 58.58884,-16.16244 0,0 -9.38124,-26.25042 -19.69797,-34.59773 -11.46589,-9.2771 -27.49021,-14.77065 -42.17387,-13.38452 -14.09948,1.33098 -27.75945,9.80614 -37.37564,20.20305 -8.87943,9.60033 -15.90991,35.86042 -15.90991,35.86042 z"
         id="path4590"
         inkscape:connector-curvature="0"
         sodipodi:nodetypes="cscsssc"
         transform="translate(336.72742,49.201375)" />
      <path
         style="fill:#ffffff;fill-opacity:1;stroke:none;display:inline"
         d="m 545.98744,249.79598 c 0,0 -37.55948,9.2925 -56.56855,8.08122 -20.21809,-1.28832 -58.58884,-16.16244 -58.58884,-16.16244 0,0 9.38124,-26.25042 19.69797,-34.59773 11.46589,-9.2771 27.49021,-14.77065 42.17387,-13.38452 14.09948,1.33098 27.75945,9.80614 37.37564,20.20305 8.87943,9.60033 15.90991,35.86042 15.90991,35.86042 z"
         id="path4586"
         inkscape:connector-curvature="0"
         sodipodi:nodetypes="cscsssc"
         transform="translate(336.72742,49.201375)" />
      <path
         sodipodi:nodetypes="sssss"
         inkscape:connector-curvature="0"
         id="path4580"
         d="m 307.44811,231.21387 c 0.19749,-8.65463 11.99833,-16.94556 20.64847,-17.28712 7.87618,-0.31099 20.37899,6.62015 21.60889,14.40593 1.43148,9.0618 -9.5944,19.30361 -18.72771,20.16829 -9.68914,0.91732 -23.75168,-7.55717 -23.52965,-17.2871 z"
         style="fill:#000000;fill-opacity:1;stroke:none;display:inline"
         transform="translate(336.72742,49.201375)" />
      <path
         transform="matrix(1.7619048,0,0,1.6666667,72.45871,-106.65913)"
         d="m 343.57144,234.32646 c 0,2.07107 -1.67893,3.75 -3.75,3.75 -2.07107,0 -3.75,-1.67893 -3.75,-3.75 0,-2.07107 1.67893,-3.75 3.75,-3.75 2.07107,0 3.75,1.67893 3.75,3.75 z"
         sodipodi:ry="3.75"
         sodipodi:rx="3.75"
         sodipodi:cy="234.32646"
         sodipodi:cx="339.82144"
         id="path4582"
         style="fill:#ffffff;fill-opacity:1;stroke:none;display:inline"
         sodipodi:type="arc" />
      <path
         sodipodi:nodetypes="sssss"
         inkscape:connector-curvature="0"
         id="path4574"
         d="m 481.8095,231.04742 c 0.19749,-8.65463 11.99833,-16.94556 20.64847,-17.28712 7.87618,-0.31099 20.37899,6.62015 21.60889,14.40593 1.43148,9.0618 -9.5944,19.30361 -18.72771,20.16829 -9.68914,0.91732 -23.75168,-7.55717 -23.52965,-17.2871 z"
         style="fill:#000000;fill-opacity:1;stroke:none;display:inline"
         transform="translate(336.72742,49.201375)" />
      <path
         sodipodi:type="arc"
         style="fill:#ffffff;fill-opacity:1;stroke:none;display:inline"
         id="path4576"
         sodipodi:cx="339.82144"
         sodipodi:cy="234.32646"
         sodipodi:rx="3.75"
         sodipodi:ry="3.75"
         d="m 343.57144,234.32646 c 0,2.07107 -1.67893,3.75 -3.75,3.75 -2.07107,0 -3.75,-1.67893 -3.75,-3.75 0,-2.07107 1.67893,-3.75 3.75,-3.75 2.07107,0 3.75,1.67893 3.75,3.75 z"
         transform="matrix(1.7619048,0,0,1.6666667,244.60156,-108.0877)" />
    </g>
  </g>
</svg>
